#Comment line ignore any data following # character 
#Hierarchical Translation and Rotation (.htr) file 
[Header]	
#Header keywords are followed by a single value 
FileType HTR		#Single word string
DataType HTRS		#Translation followed by rotation and scale data
FileVersion 1		#integer
NumSegments 84		#integer
NumFrames 2		#integer
DataFrameRate 30		#integer, data frame rate in this file
EulerRotationOrder ZYX
CalibrationUnits mm
RotationUnits Degrees
GlobalAxisofGravity Y
BoneLengthAxis Y
ScaleFactor 1.00
[SegmentNames&Hierarchy]
#CHILD	PARENT
MASTER GLOBAL
root MASTER
chest root
L_mid_tent01 root
R_mid_tent01 root
spine01 root
Bip01_Neck chest
L_humerus chest
R_humerus chest
weapon_bone chest
Bip01_Head Bip01_Neck
eye_left_bone Bip01_Head
eye_right_bone Bip01_Head
L_forearm L_humerus
L_front_hand L_forearm
L_weapon_bone L_forearm
L_front_hand01_01 L_front_hand
L_front_hand02_01 L_front_hand
L_front_hand03_01 L_front_hand
L_front_hand01_02 L_front_hand01_01
L_front_hand02_02 L_front_hand02_01
L_front_hand03_02 L_front_hand03_01
R_forearm R_humerus
R_front_hand R_forearm
R_weapon_bone R_forearm
R_front_hand01_01 R_front_hand
R_front_hand02_01 R_front_hand
R_front_hand03_01 R_front_hand
R_front_hand01_02 R_front_hand01_01
R_front_hand02_02 R_front_hand02_01
R_front_hand03_02 R_front_hand03_01
null_rope01_connect L_mid_tent01
Rope1_Seg01 null_rope01_connect
Rope1_Seg02 Rope1_Seg01
Rope1_Seg03 Rope1_Seg02
Rope1_Seg04 Rope1_Seg03
Rope1_Seg05 Rope1_Seg04
Rope1_Seg06 Rope1_Seg05
Rope1_Seg07 Rope1_Seg06
Rope1_Seg09 Rope1_Seg07
L_mid_hand01 Rope1_Seg09
L_mid_hand02 Rope1_Seg09
L_mid_hand03 Rope1_Seg09
null_rope02_connect R_mid_tent01
Rope2_Seg01 null_rope02_connect
Rope2_Seg02 Rope2_Seg01
Rope2_Seg03 Rope2_Seg02
Rope2_Seg04 Rope2_Seg03
Rope2_Seg05 Rope2_Seg04
Rope2_Seg06 Rope2_Seg05
Rope2_Seg07 Rope2_Seg06
Rope2_Seg09 Rope2_Seg07
R_mid_hand01 Rope2_Seg09
R_mid_hand02 Rope2_Seg09
R_mid_hand03 Rope2_Seg09
spine02 spine01
spine03 spine02
pelvis spine03
null_rope03_connect pelvis
null_rope04_connect pelvis
Rope3_Seg01 null_rope03_connect
Rope3_Seg02 Rope3_Seg01
Rope3_Seg03 Rope3_Seg02
Rope3_Seg04 Rope3_Seg03
Rope3_Seg05 Rope3_Seg04
Rope3_Seg06 Rope3_Seg05
Rope3_Seg07 Rope3_Seg06
Rope3_Seg08 Rope3_Seg07
Rope3_Seg09 Rope3_Seg08
R_rear_hand01 Rope3_Seg09
R_rear_hand02 Rope3_Seg09
R_rear_hand03 Rope3_Seg09
Rope4_Seg01 null_rope04_connect
Rope4_Seg02 Rope4_Seg01
Rope4_Seg03 Rope4_Seg02
Rope4_Seg04 Rope4_Seg03
Rope4_Seg05 Rope4_Seg04
Rope4_Seg06 Rope4_Seg05
Rope4_Seg07 Rope4_Seg06
Rope4_Seg08 Rope4_Seg07
Rope4_Seg09 Rope4_Seg08
L_rear_hand01 Rope4_Seg09
L_rear_hand02 Rope4_Seg09
L_rear_hand03 Rope4_Seg09
[BasePosition]
#SegmentName Tx, Ty, Tz, Rx, Ry, Rz, BoneLength
MASTER 0.000000 0.000000 0.000000 -90.000000 0.000000 0.000000 10.000000 
root 0.000000 0.000000 0.000000 0.000000 0.000000 0.000000 10.000000 
chest 0.000000 0.000000 0.000000 0.000000 0.000000 0.000000 10.000000 
L_mid_tent01 0.000000 0.000000 0.000000 0.000000 0.000000 0.000000 10.000000 
R_mid_tent01 0.000000 0.000000 0.000000 0.000000 0.000000 0.000000 10.000000 
spine01 0.000000 0.000000 0.000000 0.000000 0.000000 0.000000 10.000000 
Bip01_Neck 0.000000 0.000000 0.000000 0.000000 0.000000 0.000000 10.000000 
L_humerus 0.000000 0.000000 0.000000 0.000000 0.000000 0.000000 10.000000 
R_humerus 0.000000 0.000000 0.000000 0.000000 0.000000 0.000000 10.000000 
weapon_bone 0.000000 0.000000 0.000000 0.000000 0.000000 0.000000 10.000000 
Bip01_Head 0.000000 0.000000 0.000000 0.000000 0.000000 0.000000 10.000000 
eye_left_bone 0.000000 0.000000 0.000000 0.000000 0.000000 0.000000 10.000000 
eye_right_bone 0.000000 0.000000 0.000000 0.000000 0.000000 0.000000 10.000000 
L_forearm 0.000000 0.000000 0.000000 0.000000 0.000000 0.000000 10.000000 
L_front_hand 0.000000 0.000000 0.000000 0.000000 0.000000 0.000000 10.000000 
L_weapon_bone 0.000000 0.000000 0.000000 0.000000 0.000000 0.000000 10.000000 
L_front_hand01_01 0.000000 0.000000 0.000000 0.000000 0.000000 0.000000 10.000000 
L_front_hand02_01 0.000000 0.000000 0.000000 0.000000 0.000000 0.000000 10.000000 
L_front_hand03_01 0.000000 0.000000 0.000000 0.000000 0.000000 0.000000 10.000000 
L_front_hand01_02 0.000000 0.000000 0.000000 0.000000 0.000000 0.000000 10.000000 
L_front_hand02_02 0.000000 0.000000 0.000000 0.000000 0.000000 0.000000 10.000000 
L_front_hand03_02 0.000000 0.000000 0.000000 0.000000 0.000000 0.000000 10.000000 
R_forearm 0.000000 0.000000 0.000000 0.000000 0.000000 0.000000 10.000000 
R_front_hand 0.000000 0.000000 0.000000 0.000000 0.000000 0.000000 10.000000 
R_weapon_bone 0.000000 0.000000 0.000000 0.000000 0.000000 0.000000 10.000000 
R_front_hand01_01 0.000000 0.000000 0.000000 0.000000 0.000000 0.000000 10.000000 
R_front_hand02_01 0.000000 0.000000 0.000000 0.000000 0.000000 0.000000 10.000000 
R_front_hand03_01 0.000000 0.000000 0.000000 0.000000 0.000000 0.000000 10.000000 
R_front_hand01_02 0.000000 0.000000 0.000000 0.000000 0.000000 0.000000 10.000000 
R_front_hand02_02 0.000000 0.000000 0.000000 0.000000 0.000000 0.000000 10.000000 
R_front_hand03_02 0.000000 0.000000 0.000000 0.000000 0.000000 0.000000 10.000000 
null_rope01_connect 0.000000 0.000000 0.000000 0.000000 0.000000 0.000000 10.000000 
Rope1_Seg01 0.000000 0.000000 0.000000 0.000000 0.000000 0.000000 10.000000 
Rope1_Seg02 0.000000 0.000000 0.000000 0.000000 0.000000 0.000000 10.000000 
Rope1_Seg03 0.000000 0.000000 0.000000 0.000000 0.000000 0.000000 10.000000 
Rope1_Seg04 0.000000 0.000000 0.000000 0.000000 0.000000 0.000000 10.000000 
Rope1_Seg05 0.000000 0.000000 0.000000 0.000000 0.000000 0.000000 10.000000 
Rope1_Seg06 0.000000 0.000000 0.000000 0.000000 0.000000 0.000000 10.000000 
Rope1_Seg07 0.000000 0.000000 0.000000 0.000000 0.000000 0.000000 10.000000 
Rope1_Seg09 0.000000 0.000000 0.000000 0.000000 0.000000 0.000000 10.000000 
L_mid_hand01 0.000000 0.000000 0.000000 0.000000 0.000000 0.000000 10.000000 
L_mid_hand02 0.000000 0.000000 0.000000 0.000000 0.000000 0.000000 10.000000 
L_mid_hand03 0.000000 0.000000 0.000000 0.000000 0.000000 0.000000 10.000000 
null_rope02_connect 0.000000 0.000000 0.000000 0.000000 0.000000 0.000000 10.000000 
Rope2_Seg01 0.000000 0.000000 0.000000 0.000000 0.000000 0.000000 10.000000 
Rope2_Seg02 0.000000 0.000000 0.000000 0.000000 0.000000 0.000000 10.000000 
Rope2_Seg03 0.000000 0.000000 0.000000 0.000000 0.000000 0.000000 10.000000 
Rope2_Seg04 0.000000 0.000000 0.000000 0.000000 0.000000 0.000000 10.000000 
Rope2_Seg05 0.000000 0.000000 0.000000 0.000000 0.000000 0.000000 10.000000 
Rope2_Seg06 0.000000 0.000000 0.000000 0.000000 0.000000 0.000000 10.000000 
Rope2_Seg07 0.000000 0.000000 0.000000 0.000000 0.000000 0.000000 10.000000 
Rope2_Seg09 0.000000 0.000000 0.000000 0.000000 0.000000 0.000000 10.000000 
R_mid_hand01 0.000000 0.000000 0.000000 0.000000 0.000000 0.000000 10.000000 
R_mid_hand02 0.000000 0.000000 0.000000 0.000000 0.000000 0.000000 10.000000 
R_mid_hand03 0.000000 0.000000 0.000000 0.000000 0.000000 0.000000 10.000000 
spine02 0.000000 0.000000 0.000000 0.000000 0.000000 0.000000 10.000000 
spine03 0.000000 0.000000 0.000000 0.000000 0.000000 0.000000 10.000000 
pelvis 0.000000 0.000000 0.000000 0.000000 0.000000 0.000000 10.000000 
null_rope03_connect 0.000000 0.000000 0.000000 0.000000 0.000000 0.000000 10.000000 
null_rope04_connect 0.000000 0.000000 0.000000 0.000000 0.000000 0.000000 10.000000 
Rope3_Seg01 0.000000 0.000000 0.000000 0.000000 0.000000 0.000000 10.000000 
Rope3_Seg02 0.000000 0.000000 0.000000 0.000000 0.000000 0.000000 10.000000 
Rope3_Seg03 0.000000 0.000000 0.000000 0.000000 0.000000 0.000000 10.000000 
Rope3_Seg04 0.000000 0.000000 0.000000 0.000000 0.000000 0.000000 10.000000 
Rope3_Seg05 0.000000 0.000000 0.000000 0.000000 0.000000 0.000000 10.000000 
Rope3_Seg06 0.000000 0.000000 0.000000 0.000000 0.000000 0.000000 10.000000 
Rope3_Seg07 0.000000 0.000000 0.000000 0.000000 0.000000 0.000000 10.000000 
Rope3_Seg08 0.000000 0.000000 0.000000 0.000000 0.000000 0.000000 10.000000 
Rope3_Seg09 0.000000 0.000000 0.000000 0.000000 0.000000 0.000000 10.000000 
R_rear_hand01 0.000000 0.000000 0.000000 0.000000 0.000000 0.000000 10.000000 
R_rear_hand02 0.000000 0.000000 0.000000 0.000000 0.000000 0.000000 10.000000 
R_rear_hand03 0.000000 0.000000 0.000000 0.000000 0.000000 0.000000 10.000000 
Rope4_Seg01 0.000000 0.000000 0.000000 0.000000 0.000000 0.000000 10.000000 
Rope4_Seg02 0.000000 0.000000 0.000000 0.000000 0.000000 0.000000 10.000000 
Rope4_Seg03 0.000000 0.000000 0.000000 0.000000 0.000000 0.000000 10.000000 
Rope4_Seg04 0.000000 0.000000 0.000000 0.000000 0.000000 0.000000 10.000000 
Rope4_Seg05 0.000000 0.000000 0.000000 0.000000 0.000000 0.000000 10.000000 
Rope4_Seg06 0.000000 0.000000 0.000000 0.000000 0.000000 0.000000 10.000000 
Rope4_Seg07 0.000000 0.000000 0.000000 0.000000 0.000000 0.000000 10.000000 
Rope4_Seg08 0.000000 0.000000 0.000000 0.000000 0.000000 0.000000 10.000000 
Rope4_Seg09 0.000000 0.000000 0.000000 0.000000 0.000000 0.000000 10.000000 
L_rear_hand01 0.000000 0.000000 0.000000 0.000000 0.000000 0.000000 10.000000 
L_rear_hand02 0.000000 0.000000 0.000000 0.000000 0.000000 0.000000 10.000000 
L_rear_hand03 0.000000 0.000000 0.000000 0.000000 0.000000 0.000000 10.000000 
#Beginning of Data. Separated by tabs
#Fr	Tx	Ty	Tz	Rx	Ry	Rz	SF
[MASTER]
26 0.000000 0.000000 0.000000 0.001660 0.001660 0.001660 0.000000
27 0.000000 0.000000 0.000000 0.001660 0.001660 0.001660 0.000000
[root]
26 -16.502338 85.772293 1617.055786 -75.945763 1.331047 -110.643311 1619.412964
27 -16.502338 83.992645 1613.125610 -77.146393 0.430856 -110.300468 1615.395020
[chest]
26 -84.512650 -34.090519 0.000000 -2.133083 -0.010249 167.827896 91.129311
27 -84.512650 -34.090519 0.000000 -2.137514 -0.009682 167.883591 91.129311
[L_mid_tent01]
26 27.299107 22.179153 -249.918701 57.230839 39.757076 141.535400 252.381683
27 27.299107 22.179150 -249.918701 51.010357 43.802795 131.583618 252.381683
[R_mid_tent01]
26 23.228794 24.509907 226.238495 170.062973 -4.678203 44.055950 228.744751
27 23.228794 24.509907 226.238495 171.874680 -6.091540 42.786686 228.744751
[spine01]
26 -0.361383 -0.195265 0.000000 -0.000001 -0.000007 22.052340 0.410763
27 -0.361383 -0.195265 0.000000 -0.000001 -0.000007 22.052340 0.410763
[Bip01_Neck]
26 165.484543 71.581718 0.000119 175.896118 1.177290 24.871183 180.302734
27 165.484543 71.581718 0.000119 175.896118 1.177290 24.871183 180.302734
[L_humerus]
26 -13.983130 -135.272980 -120.471481 -116.506279 33.083595 -14.792912 181.680161
27 -13.983130 -135.272980 -120.471481 -121.769188 37.813885 -21.264677 181.680161
[R_humerus]
26 -13.983309 -135.273102 125.287651 -177.239014 -67.451233 -85.317551 184.909012
27 -13.983309 -135.273102 125.287651 179.552765 -70.862640 -82.164063 184.909012
[weapon_bone]
26 235.964890 -300.705902 0.000000 0.000000 -89.951546 -128.212341 382.234833
27 235.964890 -300.705902 0.000000 0.000000 -89.951546 -128.212341 382.234833
[Bip01_Head]
26 182.729507 176.678589 8.432193 1.943960 1.170200 -46.217781 254.315750
27 186.086105 172.512680 7.860978 2.065924 1.652580 -48.433422 253.870941
[eye_left_bone]
26 33.290951 158.056091 -72.035362 -123.807961 -88.094948 24.368328 176.859009
27 33.083553 157.854782 -71.805397 -124.536575 -88.197235 25.097206 176.546509
[eye_right_bone]
26 39.248196 159.323761 56.860508 56.382992 -88.087555 24.175968 173.659439
27 38.688866 159.109726 57.114552 55.508564 -88.197884 25.053463 173.420898
[L_forearm]
26 322.776093 0.000000 -0.000119 0.001094 0.002077 -34.452381 322.776093
27 322.776093 0.000000 -0.000119 0.000977 0.002134 -40.785557 322.776093
[L_front_hand]
26 241.149185 -0.042021 -3.300071 -175.772552 -2.188389 -11.328635 241.171753
27 241.149185 -0.042021 -3.300071 149.913589 -2.109899 -13.139559 241.171753
[L_weapon_bone]
26 156.183838 0.000000 0.000000 0.000014 0.000007 0.000001 156.183838
27 156.183838 0.000000 0.000000 0.000014 0.000007 0.000001 156.183838
[L_front_hand01_01]
26 86.095154 20.947098 -0.655860 -0.366594 -0.477154 75.385574 88.609184
27 86.095154 20.947098 -0.655860 -0.366594 -0.477154 75.385574 88.609184
[L_front_hand02_01]
26 86.935165 -11.437475 24.513514 154.399796 -59.883835 -61.369587 91.046425
27 86.935165 -11.437475 24.513514 154.399796 -59.883835 -61.369587 91.046425
[L_front_hand03_01]
26 86.637497 -14.123976 -20.424902 -153.913849 58.118122 -62.702866 90.126129
27 86.637497 -14.123976 -20.424902 -153.913849 58.118122 -62.702866 90.126129
[L_front_hand01_02]
26 71.020905 -0.000179 0.000030 0.000334 -0.002323 -106.379684 71.020905
27 71.020905 -0.000179 0.000030 0.000334 -0.002323 -106.379684 71.020905
[L_front_hand02_02]
26 71.020927 -0.000119 0.000060 0.000334 -0.002323 -106.379684 71.020927
27 71.020927 -0.000119 0.000060 0.000334 -0.002323 -106.379684 71.020927
[L_front_hand03_02]
26 71.020905 -0.000060 0.000060 0.000334 -0.002323 -106.379684 71.020905
27 71.020905 -0.000060 0.000060 0.000334 -0.002323 -106.379684 71.020905
[R_forearm]
26 322.776428 -0.000060 0.000030 0.200424 -0.073665 -71.023224 322.776428
27 322.776428 -0.000060 0.000030 0.202581 -0.063654 -72.788902 322.776428
[R_front_hand]
26 238.847015 -0.006795 2.210259 -2.635298 -10.645461 -26.312506 238.857239
27 238.847015 -0.006795 2.210259 -2.635298 -10.645461 -26.312506 238.857239
[R_weapon_bone]
26 155.664093 0.002503 -0.000030 0.003487 0.001180 -90.988930 155.664078
27 155.664093 0.002503 -0.000030 0.003487 0.001180 -90.988930 155.664078
[R_front_hand01_01]
26 87.624611 14.231146 22.918642 -154.633499 -59.950619 61.746044 91.683487
27 87.624611 14.231146 22.918642 -154.633499 -59.950619 61.746044 91.683487
[R_front_hand02_01]
26 89.356956 14.367283 -19.491137 154.602661 58.302849 63.744389 92.579636
27 89.356956 14.367283 -19.491137 154.602661 58.302849 63.744389 92.579636
[R_front_hand03_01]
26 87.286232 -22.307278 -0.143439 0.162155 -0.423168 -75.767921 90.091743
27 87.286232 -22.307278 -0.143439 0.162155 -0.423168 -75.767921 90.091743
[R_front_hand01_02]
26 71.020905 0.000060 0.000119 0.002323 -0.000334 106.381714 71.020905
27 71.020905 0.000060 0.000119 0.002323 -0.000334 106.381714 71.020905
[R_front_hand02_02]
26 71.020844 -0.000030 -0.000119 0.002323 -0.000334 106.381714 71.020836
27 71.020844 -0.000030 -0.000119 0.002323 -0.000334 106.381714 71.020836
[R_front_hand03_02]
26 71.020905 0.000000 0.000030 0.002323 -0.000334 106.381714 71.020905
27 71.020905 0.000000 0.000030 0.002323 -0.000334 106.381714 71.020905
[null_rope01_connect]
26 328.732483 0.000000 -0.000238 -149.871094 -29.575943 107.029305 328.732483
27 328.732483 0.000000 -0.000238 -145.956940 -29.424623 113.866127 328.732483
[Rope1_Seg01]
26 0.000000 0.000000 0.000000 88.396347 27.014616 99.503426 0.000000
27 0.000000 0.000000 0.000000 91.756493 32.888550 105.995033 0.000000
[Rope1_Seg02]
26 139.999863 -0.000179 0.000000 -0.523259 -7.672328 8.848797 139.999863
27 139.999863 -0.000179 0.000000 -1.107810 -9.296731 9.520706 139.999863
[Rope1_Seg03]
26 139.999924 0.000060 -0.000060 -0.398645 -8.286028 9.830920 139.999924
27 139.999924 0.000060 -0.000060 -1.757499 -10.732674 11.043227 139.999924
[Rope1_Seg04]
26 139.999924 -0.000060 -0.000119 2.581601 -9.010694 12.892353 139.999924
27 139.999924 -0.000060 -0.000119 -1.789642 -11.768520 13.147174 139.999924
[Rope1_Seg05]
26 139.999832 0.000119 -0.000060 -3.133240 -4.784215 3.896674 139.999832
27 139.999832 0.000119 -0.000060 -4.870933 -6.647949 5.229885 139.999832
[Rope1_Seg06]
26 139.999954 0.000119 -0.000060 -9.791306 -1.008875 -4.430294 139.999954
27 139.999954 0.000119 -0.000060 -7.457091 -1.699352 -1.761282 139.999954
[Rope1_Seg07]
26 139.999985 0.000060 0.000000 -4.915402 -0.543352 -2.430544 139.999985
27 139.999985 0.000060 0.000000 -5.319066 -1.309904 -1.160479 139.999985
[Rope1_Seg09]
26 121.602913 0.000119 -0.000089 4.106091 0.959822 2.129631 121.602913
27 121.602913 0.000119 -0.000089 -30.741941 2.649249 1.643750 121.602913
[L_mid_hand01]
26 103.859421 1.038730 8.195221 129.549438 -67.084206 -37.790401 104.187431
27 103.859421 1.038730 8.195221 130.544342 -67.584496 -38.866909 104.187431
[L_mid_hand02]
26 105.572853 -4.139662 -10.864139 -168.317154 43.279957 -72.619522 106.211075
27 105.572853 -4.139662 -10.864139 -168.923157 43.409317 -73.498878 106.211075
[L_mid_hand03]
26 104.641464 17.579376 -3.913581 -6.221180 17.738110 74.211739 106.179977
27 104.641464 17.579376 -3.913581 -6.012630 17.808170 74.893646 106.179977
[null_rope02_connect]
26 328.732849 0.000179 -0.000119 134.565674 75.444206 -93.554070 328.732849
27 328.732849 0.000179 -0.000119 137.255875 75.111343 -93.020409 328.732849
[Rope2_Seg01]
26 0.000095 0.000153 0.000053 75.718575 -6.320111 -75.400932 0.000188
27 0.000095 0.000153 0.000055 73.095016 -6.921875 -73.003120 0.000188
[Rope2_Seg02]
26 139.999741 -0.000060 -0.000119 8.863367 7.526077 -9.958013 139.999756
27 139.999741 -0.000060 -0.000119 10.309988 6.224761 -10.138842 139.999756
[Rope2_Seg03]
26 140.000107 0.000030 0.000000 10.979103 6.016049 -7.980064 140.000107
27 140.000107 0.000030 0.000000 12.076682 5.253339 -8.237843 140.000107
[Rope2_Seg04]
26 139.999802 0.000000 -0.000060 11.577653 3.106331 -5.484146 139.999802
27 139.999802 0.000000 -0.000060 12.467453 2.491132 -5.775150 139.999802
[Rope2_Seg05]
26 139.999985 -0.000060 0.000119 20.942276 -4.918625 -6.170180 139.999985
27 139.999985 -0.000060 0.000119 16.260006 -7.308199 -4.413126 139.999985
[Rope2_Seg06]
26 139.999893 -0.000030 -0.000119 28.091702 -32.548569 -12.145782 139.999893
27 139.999893 -0.000030 -0.000119 14.399486 -31.885366 -1.950252 139.999893
[Rope2_Seg07]
26 139.999893 0.000060 -0.000060 3.041271 -48.001503 3.343836 139.999893
27 139.999893 0.000060 -0.000060 1.226278 -38.613575 5.591208 139.999893
[Rope2_Seg09]
26 121.338966 0.000089 -0.000060 33.793236 -1.359788 -0.847141 121.338966
27 121.338966 0.000089 -0.000060 33.793236 -1.359788 -0.847141 121.338966
[R_mid_hand01]
26 104.680779 11.144459 -10.335981 -44.145958 19.560671 21.759455 105.778534
27 104.680779 11.144459 -10.335981 -44.145947 19.560663 21.759447 105.778534
[R_mid_hand02]
26 104.070427 2.443552 8.231699 74.186180 -24.483591 7.232481 104.424065
27 104.070427 2.443552 8.231699 74.186195 -24.483599 7.232481 104.424065
[R_mid_hand03]
26 106.028137 -11.221827 -5.996406 -166.520828 8.347037 -28.494413 106.788818
27 106.028137 -11.221827 -5.996406 -166.520828 8.347037 -28.494413 106.788818
[spine02]
26 129.756927 0.001550 0.000119 0.666033 -4.005420 -17.291769 129.756927
27 129.756927 0.001550 0.000119 0.636331 -4.010057 -16.862509 129.756927
[spine03]
26 78.614067 0.081635 -4.899013 0.010539 4.274071 -9.732119 78.766602
27 78.614067 0.081635 -4.899013 0.203936 4.269036 -7.146081 78.766602
[pelvis]
26 169.435242 0.051022 0.000000 -0.061205 -0.179976 14.558528 169.435257
27 169.435242 0.051022 0.000000 -0.061106 -0.180009 14.495702 169.435257
[null_rope03_connect]
26 -1.257226 -2.466202 137.391083 -52.650974 -64.059502 134.666718 137.418976
27 -1.257226 -2.466202 137.391083 -54.254719 -65.221573 133.923752 137.418976
[null_rope04_connect]
26 -1.259640 -2.480268 -137.844437 -52.650974 -64.059502 134.666718 137.872513
27 -1.259640 -2.480268 -137.844437 -54.254719 -65.221573 133.923752 137.872513
[Rope3_Seg01]
26 0.000010 0.000012 -0.000047 -129.898758 12.978691 -72.593178 0.000049
27 0.000010 0.000011 -0.000042 -130.396378 13.781615 -74.754555 0.000045
[Rope3_Seg02]
26 139.999924 -0.000119 0.000060 -0.200957 -2.870145 6.892457 139.999924
27 139.999924 -0.000119 0.000060 -0.391444 -2.279040 6.800282 139.999924
[Rope3_Seg03]
26 139.999924 -0.000119 0.000119 -1.618185 -4.816890 11.619112 139.999924
27 139.999924 -0.000119 0.000119 -1.852228 -3.841313 11.351156 139.999924
[Rope3_Seg04]
26 139.999924 0.000119 0.000000 -6.667614 -4.873545 22.853882 139.999924
27 139.999924 0.000119 0.000000 -6.543703 -2.382858 22.688942 139.999924
[Rope3_Seg05]
26 139.999924 -0.000238 0.000060 -16.018332 -6.569084 25.829693 139.999924
27 139.999924 -0.000238 0.000060 -18.233316 -6.506366 25.483067 139.999924
[Rope3_Seg06]
26 139.999893 -0.000119 -0.000060 -13.556784 -28.012487 0.611879 139.999893
27 139.999893 -0.000119 -0.000060 -13.062180 -33.610512 -4.193406 139.999893
[Rope3_Seg07]
26 139.999771 0.000060 -0.000119 2.848241 -28.722656 -17.341698 139.999771
27 139.999771 0.000060 -0.000119 2.522021 -24.546841 -15.345393 139.999771
[Rope3_Seg08]
26 139.999985 -0.000060 0.000000 2.166343 -10.230062 -3.480435 139.999985
27 139.999985 -0.000060 0.000000 1.758317 -8.474441 -3.084995 139.999985
[Rope3_Seg09]
26 90.185997 -0.000179 -0.000060 -26.056368 -1.361617 -0.845806 90.185997
27 90.185997 -0.000179 -0.000060 -42.563324 -1.358668 -0.849076 90.185997
[R_rear_hand01]
26 103.366196 -6.073594 -10.757982 -160.019470 14.769054 -24.439312 104.101845
27 103.366196 -6.073594 -10.757982 -160.019470 14.769056 -24.439318 104.101845
[R_rear_hand02]
26 100.509819 12.039542 -7.992327 -35.779446 15.980558 23.927948 101.543350
27 100.509819 12.039542 -7.992327 -35.779446 15.980558 23.927948 101.543350
[R_rear_hand03]
26 101.539970 5.215704 5.435467 83.711815 -25.208059 6.550416 101.819031
27 101.539970 5.215704 5.435467 83.711815 -25.208061 6.550417 101.819031
[Rope4_Seg01]
26 0.000010 0.000038 -0.000114 60.049789 -21.850616 -140.753754 0.000121
27 0.000010 0.000038 -0.000114 46.359921 -4.100125 -133.633148 0.000121
[Rope4_Seg02]
26 139.999985 0.000060 0.000119 4.029810 -5.414734 1.961311 139.999985
27 139.999985 0.000060 0.000119 4.113919 -7.772014 2.911964 139.999985
[Rope4_Seg03]
26 139.999924 0.000000 -0.000238 7.615803 -7.939083 3.582251 139.999924
27 139.999924 0.000000 -0.000238 7.539579 -9.963763 5.211757 139.999924
[Rope4_Seg04]
26 139.999985 0.000000 0.000119 15.061739 -3.810541 14.570376 139.999985
27 139.999985 0.000000 0.000119 12.517929 -4.031123 15.919149 139.999985
[Rope4_Seg05]
26 139.999802 -0.000060 -0.000119 32.245243 -28.199049 8.229032 139.999802
27 139.999802 -0.000060 -0.000119 13.957641 -20.580843 3.705993 139.999802
[Rope4_Seg06]
26 139.999924 0.000000 0.000060 72.651001 -36.855610 21.696560 139.999924
27 139.999924 0.000000 0.000060 101.710640 -48.084309 0.226098 139.999924
[Rope4_Seg07]
26 139.999802 0.000000 0.000000 9.496451 4.452511 10.611259 139.999802
27 139.999802 0.000000 0.000000 20.597929 4.617566 16.428898 139.999802
[Rope4_Seg08]
26 139.999924 0.000000 0.000119 1.197717 2.655491 4.186057 139.999924
27 139.999924 0.000000 0.000119 2.071753 3.911626 5.058024 139.999924
[Rope4_Seg09]
26 90.185791 0.000060 0.000060 -92.393929 2.229620 0.850633 90.185791
27 90.185791 0.000060 0.000060 -96.320709 2.230348 0.850717 90.185791
[L_rear_hand01]
26 101.696655 -8.392275 -7.654577 -33.730721 -20.321470 149.497833 102.329041
27 101.696655 -8.392275 -7.654577 -34.621269 -18.604876 152.181122 102.329041
[L_rear_hand02]
26 102.726799 -1.568258 5.773216 83.230804 32.765301 172.461090 102.900848
27 102.726799 -1.568258 5.773216 83.447212 29.730898 172.873245 102.900848
[L_rear_hand03]
26 104.552910 9.721220 -10.420293 -162.085541 -17.241915 -148.076920 105.519653
27 104.552910 9.721220 -10.420293 -161.213135 -16.280869 -151.108444 105.519653
